PathFileType	4	(X/Y/Z)	 s07c0401.trc
DataRate	CameraRate	NumFrames	NumMarkers	Units	OrigDataRate	OrigDataStartFrame	OrigNumFrames
200	200	4	48	mm	200	1251	2000
Frame#	Time	racr			lacr			c7			jug			rlel			rdr			llel			ldr			s2			lic			ric			lasi			rasi			rpsi			lpsi			rgt			lgt			rth1			rth2			rth3			rth4			rlfc			rmfc			rsh1			rsh2			rsh3			rsh4			rlmal			rcal			rtoe			rmt5			lth1			lth2			lth4			lth3			llfc			lmfc			lsh1			lsh2			lsh3			lsh4			llmal			lcal			ltoe			lmt5			SBIKE			LBIKE			RBIKE			
		X1	Y1	Z1	X2	Y2	Z2	X3	Y3	Z3	X4	Y4	Z4	X5	Y5	Z5	X6	Y6	Z6	X7	Y7	Z7	X8	Y8	Z8	X9	Y9	Z9	X10	Y10	Z10	X11	Y11	Z11	X12	Y12	Z12	X13	Y13	Z13	X14	Y14	Z14	X15	Y15	Z15	X16	Y16	Z16	X17	Y17	Z17	X18	Y18	Z18	X19	Y19	Z19	X20	Y20	Z20	X21	Y21	Z21	X22	Y22	Z22	X23	Y23	Z23	X24	Y24	Z24	X25	Y25	Z25	X26	Y26	Z26	X27	Y27	Z27	X28	Y28	Z28	X29	Y29	Z29	X30	Y30	Z30	X31	Y31	Z31	X32	Y32	Z32	X33	Y33	Z33	X34	Y34	Z34	X35	Y35	Z35	X36	Y36	Z36	X37	Y37	Z37	X38	Y38	Z38	X39	Y39	Z39	X40	Y40	Z40	X41	Y41	Z41	X42	Y42	Z42	X43	Y43	Z43	X44	Y44	Z44	X45	Y45	Z45	X46	Y46	Z46	X47	Y47	Z47	X48	Y48	Z48	
1251	6.2550	785.692884	1341.357083	-18.483542	812.387721	1364.858402	-339.817874	803.854116	1406.987801	-176.923850	730.700075	1273.218920	-196.186923	489.467960	1129.501458	24.431863	697.376490	950.986969	-45.532153	566.728575	1177.767874	-520.674949	696.903372	939.416897	-421.925337	195.582352	1322.039377	-244.940891	373.044915	1328.009805	-376.689720	357.199491	1315.819074	-84.641724	378.072965	1243.085196	-352.597850	362.462698	1263.944715	-103.048507	229.945136	1352.449781	-193.549137	250.367951	1357.247542	-298.814434	276.990850	1211.466797	-47.769366	277.714291	1186.496720	-410.559542	371.657565	1089.921655	-42.863468	438.017531	1031.021635	-51.365487	468.359370	952.918808	-51.747732	464.821491	1053.155813	-65.709873	529.553986	821.953118	-85.592221	517.920087	810.142259	-190.413911	442.551283	705.946603	-61.090257	408.403272	625.638144	-81.073406	341.233166	570.122144	-77.220937	421.461785	618.599685	-120.002698	254.109492	462.333832	-75.412221	178.745657	433.291966	-104.428471	460.834048	365.769892	-115.187056	378.020246	345.307978	-45.435908	313.728064	1067.395430	-411.330560	361.226434	993.080562	-403.523906	392.528517	1003.554885	-389.521937	365.046385	904.352146	-401.100972	379.392880	729.979209	-382.043517	361.751860	715.305543	-285.916624	263.429131	630.767099	-402.484376	213.719693	562.481767	-385.807251	133.058067	522.525199	-393.501924	218.812984	562.371105	-343.567338	24.809739	437.640869	-394.499918	-50.003422	460.047546	-357.051454	126.050631	228.996563	-354.852858	55.396180	273.232843	-414.779370	-258.719606	979.275039	-227.624012	-76.049331	84.317615	-435.213747	-81.929828	79.606422	-37.794975	
1252	6.2600	786.840307	1338.971905	-18.956808	812.035931	1365.446447	-340.627381	804.132876	1405.689885	-176.939804	731.214287	1272.009085	-197.094285	489.502884	1129.003039	25.525128	697.069416	950.787439	-46.101734	566.456776	1177.471406	-520.575460	696.591777	939.269938	-421.815043	195.661715	1321.916062	-245.851590	373.943641	1328.529126	-376.159931	356.550300	1314.175231	-84.191899	378.832695	1243.581994	-352.150575	361.591502	1262.632633	-102.402990	229.775336	1351.921885	-194.005223	250.759516	1357.319650	-299.004552	274.916554	1209.902580	-48.363644	279.926148	1187.245441	-411.904844	367.488951	1086.356341	-41.996412	433.272242	1026.285708	-51.335395	462.059314	947.529513	-51.857980	460.600795	1047.948875	-65.342566	521.507654	816.140016	-85.117933	510.484682	804.047351	-189.874729	437.041094	698.701656	-60.739965	405.473548	616.699570	-80.600910	338.649823	560.658289	-76.790540	418.919304	612.058811	-117.878772	254.161767	449.941156	-75.756165	178.282908	420.708016	-103.850626	461.893967	356.045797	-115.396081	379.488155	334.553427	-45.648253	317.423587	1068.839091	-411.373994	365.767658	995.379371	-403.987413	397.129642	1006.132494	-389.774716	370.948497	906.499941	-400.908415	386.441225	731.781877	-381.583241	369.147644	717.786861	-284.798412	269.272564	635.053752	-402.262433	217.807141	568.151814	-385.210769	136.167086	530.153523	-393.137056	223.188543	567.942672	-343.079042	25.689869	447.900665	-394.352662	-48.732252	471.648828	-356.948072	123.849580	238.057970	-354.938337	53.832917	283.294746	-414.768283	-258.806064	979.194381	-227.937681	-76.050874	84.227305	-435.232074	-81.954371	79.608345	-37.801686	
1253	6.2650	788.097890	1336.740693	-19.477392	811.794264	1366.240777	-341.419184	804.324196	1404.585315	-176.934704	731.789417	1270.974205	-197.965566	489.753028	1128.211348	26.511437	696.785351	950.597667	-46.671410	566.281545	1177.247647	-520.320711	696.374639	938.946150	-421.530971	195.766602	1321.510045	-246.727663	374.841738	1328.718671	-375.405271	355.973104	1312.375866	-83.855137	379.528591	1243.767107	-351.572923	360.834279	1261.215217	-101.795690	229.528813	1351.138157	-194.257737	251.095627	1357.071230	-299.197809	273.091830	1208.099645	-49.057499	281.597521	1187.696461	-412.773015	363.958246	1082.562393	-42.403265	428.542763	1021.311822	-51.364550	455.911867	941.951166	-52.150817	456.307329	1042.485958	-64.981165	513.554321	810.177550	-84.934456	502.594102	798.079438	-189.541318	431.530504	691.183885	-60.428866	401.845428	608.814854	-79.847825	336.280358	551.299243	-75.508349	414.946808	604.413185	-117.488932	253.781461	438.026153	-75.203619	178.252827	408.153279	-103.353513	462.369818	345.927914	-115.677747	380.605537	323.751927	-45.752959	320.513380	1069.858842	-411.526472	369.770160	997.018431	-404.223615	401.126752	1008.243845	-390.339756	376.088801	908.278035	-401.061102	393.985859	733.464951	-381.257814	376.233467	720.022228	-283.836335	274.567856	639.619068	-401.928967	221.615207	573.693708	-384.704862	139.589994	537.990227	-393.426465	226.052553	573.333665	-343.227494	26.539965	458.382255	-394.202655	-47.673510	482.953542	-356.827986	122.415357	247.583007	-354.961516	52.762577	293.600478	-414.767163	-258.927454	979.087944	-228.338858	-76.059650	84.130871	-435.252552	-81.960015	79.589735	-37.820655	
1254	6.2700	789.132970	1334.705438	-20.073649	812.270229	1367.529607	-343.362560	804.452195	1403.664242	-176.861144	732.403850	1270.156877	-198.872873	489.961097	1127.538703	27.523995	696.495384	950.424497	-47.154357	566.185692	1177.163174	-519.925324	696.331058	938.720951	-421.567112	195.820414	1320.754058	-247.454704	375.601636	1328.565269	-374.734622	355.497964	1310.551935	-83.529431	380.053556	1243.652851	-351.177021	360.228278	1259.679358	-101.204710	229.289443	1350.070109	-194.465750	251.403488	1356.603235	-299.333044	271.444596	1205.938847	-49.506363	283.275389	1187.826736	-413.749204	360.510802	1078.511144	-42.843112	423.840445	1016.113940	-51.460477	449.741578	936.181111	-52.440113	452.169278	1036.723520	-64.808580	505.639105	803.971905	-84.864231	494.656013	791.807992	-189.505014	425.874640	683.628793	-60.040126	397.905287	600.800231	-79.174141	333.524771	541.747552	-74.901427	410.878359	596.543093	-117.047435	253.147511	426.456947	-74.454629	177.911921	396.016865	-102.835146	462.627233	335.808677	-115.539024	380.774782	312.451409	-45.768719	323.027070	1070.484510	-411.755063	373.202628	998.255741	-404.618462	404.552600	1009.962789	-391.143963	380.680223	909.694265	-401.368905	401.234016	734.953465	-380.991238	383.096659	721.870386	-282.941585	279.824081	643.855908	-401.534591	225.194865	579.101147	-384.412762	142.353720	545.802873	-393.063526	229.821919	578.570268	-343.040415	27.328224	469.090760	-394.217236	-46.589319	494.087832	-356.674053	121.074526	256.583327	-353.668483	52.487845	304.168360	-414.857423	-259.024273	979.029415	-228.779961	-76.087799	84.012120	-435.327302	-81.983750	79.582188	-37.872790	
